<svg width="512" height="512" fill="none" xmlns="http://www.w3.org/2000/svg">
<style>@media (prefers-color-scheme: dark) {
path { fill: #fff; stroke: #fff; }
}</style>
  <path d="M260.219 449.013c15.462-52.957 30.952-105.906 46.368-158.876 4.313-14.817 8.124-29.786 12.713-44.514 2.995-9.611 2.805-18.61-.857-28.043-4.636-11.941-8.378-24.231-12.506-36.369l2.68-1.736c15.467 16.746 31.054 33.388 46.215 50.406 1.468 1.65 1.285 6.063.229 8.476-30.352 69.466-60.909 138.842-91.465 208.216-.529 1.2-1.449 2.23-2.187 3.339-.396-.3-.793-.599-1.19-.899Z" fill="#000"/>
  <path d="M260.219 449.013c15.462-52.957 30.952-105.906 46.368-158.876 4.313-14.817 8.124-29.786 12.713-44.514 2.995-9.611 2.805-18.61-.857-28.043-4.636-11.941-8.378-24.231-12.506-36.369l2.68-1.736c15.467 16.746 31.054 33.388 46.215 50.406 1.468 1.65 1.285 6.063.229 8.476-30.352 69.466-60.909 138.842-91.465 208.216-.529 1.2-1.449 2.23-2.187 3.339-.396-.3-.793-.599-1.19-.899Z" stroke="#231F20" stroke-width="1.33333" stroke-miterlimit="10"/>
  <path d="M205.888 326.764c-3.671-3.358-7.545-6.52-10.976-10.107-11.861-12.399-23.78-24.76-35.145-37.607-2.122-2.397-3.518-7.726-2.334-10.425 29.482-67.237 59.351-134.305 89.184-201.388.374-.8413 1.159-1.4986 3.346-4.2373-9.916 35.252-19.131 68.1973-28.454 101.1123-9.722 34.324-19.728 68.569-29.114 102.985-1.252 4.591-.514 10.248.881 14.941 4.355 14.643 9.467 29.062 14.284 43.567-.557.385-1.115.772-1.672 1.159Z" fill="#000"/>
  <path d="M205.888 326.764c-3.671-3.358-7.545-6.52-10.976-10.107-11.861-12.399-23.78-24.76-35.145-37.607-2.122-2.397-3.518-7.726-2.334-10.425 29.482-67.237 59.351-134.305 89.184-201.388.374-.8413 1.159-1.4986 3.346-4.2373-9.916 35.252-19.131 68.1973-28.454 101.1123-9.722 34.324-19.728 68.569-29.114 102.985-1.252 4.591-.514 10.248.881 14.941 4.355 14.643 9.467 29.062 14.284 43.567-.557.385-1.115.772-1.672 1.159Z" stroke="#231F20" stroke-width="1.33333" stroke-miterlimit="10"/>
  <path d="M256.968 202.751c-3.056 4.779-5.295 7.568-6.775 10.715-8.027 17.061-15.34 34.481-23.989 51.216-4.314 8.344-2.083 14.105 4.376 18.469 4.59 3.101 10.417 5.491 15.876 5.932 8.452.68 17.098-.195 25.59-1.096 12.3-1.307 19.14-13.399 14.11-24.292-7.76-16.808-15.536-33.611-23.38-50.379-1.379-2.945-3.128-5.717-5.808-10.565Zm-1.298-13.256c14.64 24.467 28.384 47.391 42.044 70.365 1.02 1.715 2.039 3.791 2.034 5.696-.039 13.198-20.387 34.68-33.594 35.6-3.756.262-7.542.25-11.31.18-23.343-.43-37.006-11.542-41.944-34.372-.45-2.078.129-4.809 1.178-6.714 11.412-20.724 22.959-41.376 34.628-61.958 1.623-2.864 4.108-5.237 6.964-8.797" fill="#000"/>
  <path d="M256.968 202.751c-3.056 4.779-5.295 7.568-6.775 10.715-8.027 17.061-15.34 34.481-23.989 51.216-4.314 8.344-2.083 14.105 4.376 18.469 4.59 3.101 10.417 5.491 15.876 5.932 8.452.68 17.098-.195 25.59-1.096 12.3-1.307 19.14-13.399 14.11-24.292-7.76-16.808-15.536-33.611-23.38-50.379-1.379-2.945-3.128-5.717-5.808-10.565Zm-1.298-13.256c14.64 24.467 28.384 47.391 42.044 70.365 1.02 1.715 2.039 3.791 2.034 5.696-.039 13.198-20.387 34.68-33.594 35.6-3.756.262-7.542.25-11.31.18-23.343-.43-37.006-11.542-41.944-34.372-.45-2.078.129-4.809 1.178-6.714 11.412-20.724 22.959-41.376 34.628-61.958 1.623-2.864 4.108-5.237 6.964-8.797Z" stroke="#231F20" stroke-width="1.33333" stroke-miterlimit="10"/>
  <path d="M256.913 243.281c-3.965 4.583-7.663 8.856-11.829 13.674 3.47 4.332 7.02 8.76 10.808 13.486 4.206-5.062 7.81-9.398 11.656-14.024-3.528-4.358-7.1-8.77-10.635-13.136Zm.728-28.45c8.02 17.341 16.167 34.625 23.987 52.056 2.521 5.621-3.734 16.129-10.328 16.793-9.167.923-18.51 1.608-27.652.868-11.786-.956-16.858-10.339-11.994-21.089 7.435-16.426 15.275-32.668 22.943-48.987 1.013.119 2.029.239 3.044.359" fill="#000"/>
  <path d="M256.913 243.281c-3.965 4.583-7.663 8.856-11.829 13.674 3.47 4.332 7.02 8.76 10.808 13.486 4.206-5.062 7.81-9.398 11.656-14.024-3.528-4.358-7.1-8.77-10.635-13.136Zm.728-28.45c8.02 17.341 16.167 34.625 23.987 52.056 2.521 5.621-3.734 16.129-10.328 16.793-9.167.923-18.51 1.608-27.652.868-11.786-.956-16.858-10.339-11.994-21.089 7.435-16.426 15.275-32.668 22.943-48.987 1.013.119 2.029.239 3.044.359Z" stroke="#231F20" stroke-width="1.33333" stroke-miterlimit="10"/>
</svg>